Coordinates
version=1
nRows=8
nColumns=63
inDegrees=yes

Units are S.I. units (second, meters, Newtons, ...)
If the header above contains a line with 'inDegrees', this indicates whether rotational values are in degrees (yes) or radians (no).

endheader
time	pelvis_tilt	pelvis_list	pelvis_rotation	pelvis_tx	pelvis_ty	pelvis_tz	hip_flexion_r	hip_adduction_r	hip_rotation_r	knee_angle_r	knee_angle_r_beta	ankle_angle_r	subtalar_angle_r	mtp_angle_r	hip_flexion_l	hip_adduction_l	hip_rotation_l	knee_angle_l	knee_angle_l_beta	ankle_angle_l	subtalar_angle_l	mtp_angle_l	L5_S1_Flex_Ext	L5_S1_Lat_Bending	L5_S1_axial_rotation	L4_L5_Flex_Ext	L4_L5_Lat_Bending	L4_L5_axial_rotation	L3_L4_Flex_Ext	L3_L4_Lat_Bending	L3_L4_axial_rotation	L2_L3_Flex_Ext	L2_L3_Lat_Bending	L2_L3_axial_rotation	L1_L2_Flex_Ext	L1_L2_Lat_Bending	L1_L2_axial_rotation	L1_T12_Flex_Ext	L1_T12_Lat_Bending	L1_T12_axial_rotation	Abs_r3	Abs_r2	Abs_r1	Abs_t1	Abs_t2	neck_flexion	neck_bending	neck_rotation	arm_flex_r	arm_add_r	arm_rot_r	elbow_flex_r	pro_sup_r	wrist_flex_r	wrist_dev_r	arm_flex_l	arm_add_l	arm_rot_l	elbow_flex_l	pro_sup_l	wrist_flex_l	wrist_dev_l
      0.00000000	     -0.94329262	     -4.86258010	    104.95146393	      0.42939683	      0.74939643	      1.08672830	      7.58758906	     -3.54325864	    -22.80398385	     15.23817016	      0.26595624	     28.63742142	      8.49784291	      0.00000000	     11.27961557	     -0.77668016	     -0.26696957	     14.91350141	      0.26028970	     32.78513542	     15.70916905	      0.00000000	      0.38811488	     -0.24107179	      0.02843911	      0.72076815	     -0.32062548	      0.03021656	      0.63763394	     -0.58614194	      0.03021656	      0.44357650	     -0.58614194	      0.02488422	      0.36040348	     -0.49159359	      0.02310678	      0.22176884	     -0.37342020	      0.02132933	      2.77226581	     -2.72705227	      0.15816980	      0.00000000	      0.00000000	     28.38193189	     -4.26550786	     -7.19242476	     19.29390858	      8.19691186	    187.71019260	      1.26113426	      3.50721213	     -0.81446632	    -11.21296957	     23.24315842	      3.25486564	     91.28695532	     24.50384140	     38.07303287	     -4.05071448	      0.64890275
      0.02439024	     -0.96317819	     -4.96398040	    105.21244738	      0.42999360	      0.74927480	      1.08732371	      7.58138110	     -3.65547116	    -23.04282013	     15.11021231	      0.26372296	     29.89035294	      9.93093334	      0.00000000	     11.79742421	     -0.80060724	     -0.98748734	     15.95473282	      0.27846262	     32.81954001	     15.85896968	      0.00000000	      0.39816487	     -0.26249745	     -0.02481097	      0.73943198	     -0.34912160	     -0.02636166	      0.65414506	     -0.63823629	     -0.02636166	      0.45506263	     -0.63823629	     -0.02170960	      0.36973590	     -0.53528479	     -0.02015892	      0.22751141	     -0.40660854	     -0.01860823	      2.84405184	     -2.96942360	     -0.13799118	      0.00000000	      0.00000000	     28.38399058	     -4.48601835	     -8.13030727	     19.43032965	      8.40973289	    191.21294545	      1.06166936	      4.73930917	     -3.88004958	    -12.04973125	     23.27518342	      3.02975309	     91.43462434	     24.40304997	     37.72130197	     -4.11968490	      0.17527696
      0.04878049	     -0.92378636	     -5.08264467	    105.37022809	      0.43047005	      0.74913443	      1.08771358	      7.63397287	     -3.81799512	    -24.12289543	     15.10182226	      0.26357652	     30.94044828	     12.23710823	      0.00000000	     12.27401942	     -0.88237142	     -1.68986284	     16.78205155	      0.29290205	     32.86254122	     16.12014206	      0.00000000	      0.40628566	     -0.27224074	     -0.03913791	      0.75451310	     -0.36208018	     -0.04158403	      0.66748672	     -0.66192613	     -0.04158403	      0.46434388	     -0.66192613	     -0.03424567	      0.37727687	     -0.55515331	     -0.03179955	      0.23215163	     -0.42170090	     -0.02935343	      2.90205786	     -3.07964167	     -0.21767331	      0.00000000	      0.00000000	     28.38342704	     -4.61245170	     -8.86869747	     19.49408582	      8.50949345	    193.21176564	      0.92302889	      4.95959787	     -5.66513036	    -12.42963456	     23.39085801	      2.94410781	     92.00077467	     24.33840024	     36.78637584	     -4.28980379	     -0.18422002
      0.07317073	     -0.90258328	     -5.22026151	    105.38656952	      0.43091831	      0.74898317	      1.08791268	      7.73301947	     -3.90559565	    -24.48493375	     15.03696266	      0.26244451	     31.58408735	     13.47208917	      0.00000000	     12.64591605	     -0.90717174	     -2.05843872	     17.32870768	      0.30244300	     32.91471605	     16.12138878	      0.00000000	      0.40849601	     -0.28134550	      0.01120933	      0.75861794	     -0.37418951	      0.01190992	      0.67111809	     -0.68406344	      0.01190992	      0.46687009	     -0.68406344	      0.00980817	      0.37932939	     -0.57371974	      0.00910758	      0.23341462	     -0.43580418	      0.00840700	      2.91784614	     -3.18263654	      0.06234294	      0.00000000	      0.00000000	     28.37733334	     -4.64724668	     -9.54900463	     19.48633882	      8.51243196	    193.68318239	      0.83373057	      5.24847048	     -6.82830806	    -12.52882561	     23.55106628	      3.00721484	     92.44544538	     24.23522318	     36.47054828	     -4.34350460	     -0.21181486
      0.09756098	     -0.84490677	     -5.33823255	    105.31511489	      0.43132607	      0.74882061	      1.08802867	      7.82832033	     -3.93980623	    -24.87852603	     14.96386707	      0.26116875	     31.97864981	     14.63552941	      0.00000000	     12.95544521	     -0.98214265	     -2.42233992	     17.73807269	      0.30958777	     33.02945154	     16.24009254	      0.00000000	      0.40581221	     -0.28193947	      0.09384810	      0.75363386	     -0.37497950	      0.09971361	      0.66670888	     -0.68550763	      0.09971361	      0.46380278	     -0.68550763	      0.08211709	      0.37683722	     -0.57493097	      0.07625158	      0.23188110	     -0.43672424	      0.07038608	      2.89867605	     -3.18935569	      0.52195500	      0.00000000	      0.00000000	     28.37043996	     -4.57230924	    -10.04342391	     19.44530137	      8.43518749	    193.44599683	      0.78689257	      5.49482658	     -7.61186662	    -12.58910124	     23.75119953	      3.13811001	     92.95639656	     24.26094281	     35.81774169	     -4.54880131	     -0.03487395
      0.12195122	     -0.78842152	     -5.41256426	    105.13007241	      0.43176296	      0.74869181	      1.08794678	      7.89111813	     -3.91321216	    -25.00443601	     14.87559740	      0.25962815	     32.12282830	     15.37962001	      0.00000000	     13.15712100	     -1.08556386	     -2.79512571	     18.03094345	      0.31469933	     33.17875141	     16.42178399	      0.00000000	      0.39768023	     -0.27940818	      0.20544668	      0.73853195	     -0.37161288	      0.21828709	      0.65334885	     -0.67935304	      0.21828709	      0.45450873	     -0.67935304	      0.17976584	      0.36928586	     -0.56976915	      0.16692543	      0.22723448	     -0.43280327	      0.15408501	      2.84059011	     -3.16072118	      1.14263278	      0.00000000	      0.00000000	     28.36075937	     -4.42287225	    -10.39284497	     19.37095233	      8.32264942	    192.58610019	      0.75688011	      5.47871207	     -7.86419879	    -12.54339736	     24.00541690	      3.34624680	     93.83142506	     24.25789675	     34.82123989	     -4.76978489	      0.16253085
      0.14634146	     -0.65698971	     -5.40545959	    104.87541241	      0.43212601	      0.74855385	      1.08770449	      7.92005695	     -3.71186832	    -24.49578626	     14.79343084	      0.25819408	     31.90468799	     15.19196690	      0.00000000	     13.22120947	     -1.22409137	     -2.61161053	     18.20186424	      0.31768246	     33.25969707	     15.94952329	      0.00000000	      0.38742990	     -0.26337360	      0.31769352	      0.71949606	     -0.35028689	      0.33754937	      0.63650858	     -0.64036657	      0.33754937	      0.44279363	     -0.64036657	      0.27798183	      0.35976740	     -0.53707144	      0.25812599	      0.22137744	     -0.40796570	      0.23827014	      2.76737302	     -2.97933481	      1.76691606	      0.00000000	      0.00000000	     28.35594716	     -4.24908307	    -10.52839087	     19.29158130	      8.16468506	    191.54199486	      0.74326480	      5.90524302	     -8.10757651	    -12.62306354	     24.14303101	      3.51612202	     94.02372042	     24.30963150	     35.11843489	     -4.74733547	      0.44531317
      0.17073171	     -0.54998572	     -5.41849007	    104.63040536	      0.43236594	      0.74836746	      1.08744569	      7.94175394	     -3.60919117	    -24.52727841	     14.74602256	      0.25736665	     31.71464905	     15.56927484	      0.00000000	     13.27562365	     -1.40996643	     -2.87577129	     18.42884572	      0.32164404	     33.28391667	     16.08421369	      0.00000000	      0.38736543	     -0.24858271	      0.41128978	      0.71937634	     -0.33061501	      0.43699540	      0.63640267	     -0.60440401	      0.43699540	      0.44271995	     -0.60440401	      0.35987856	      0.35970754	     -0.50690987	      0.33417295	      0.22134061	     -0.38505462	      0.30846734	      2.76691254	     -2.81201737	      2.28747039	      0.00000000	      0.00000000	     28.35083547	     -3.92995169	    -10.47083197	     19.23101728	      8.06179037	    191.51498903	      0.71782709	      5.49173398	     -8.08206485	    -12.23013972	     24.39419816	      3.79070933	     95.62745798	     24.16266497	     33.33666477	     -4.90879329	      0.22102691
